<!DOCTYPE svg PUBLIC "-//W3C//DTD SVG 1.1//EN" "http://www.w3.org/Graphics/SVG/1.1/DTD/svg11.dtd">
<!-- Uploaded to: SVG Repo, www.svgrepo.com, Transformed by: SVG Repo Mixer Tools -->
<svg height="800px" width="800px" version="1.1" id="Layer_1" xmlns="http://www.w3.org/2000/svg" xmlns:xlink="http://www.w3.org/1999/xlink" viewBox="0 0 512 512" xml:space="preserve" fill="#000000" stroke="#000000">
<g id="SVGRepo_bgCarrier" stroke-width="0"/>
<g id="SVGRepo_tracerCarrier" stroke-linecap="round" stroke-linejoin="round"/>
<g id="SVGRepo_iconCarrier"> <path style="fill:#3e5c28;" d="M476.69,512H35.31C15.809,512,0,496.191,0,476.69V256C0,114.615,114.615,0,256,0l0,0 c141.385,0,256,114.615,256,256v220.69C512,496.191,496.191,512,476.69,512z"/> <path style="fill:#000000;" d="M256,35.31c121.688,0,220.69,99,220.69,220.69v220.69H35.31V256 C35.31,134.311,134.312,35.31,256,35.31 M256,0C114.615,0,0,114.615,0,256v220.69C0,496.191,15.809,512,35.31,512H476.69 c19.501,0,35.31-15.809,35.31-35.31V256C512,114.615,397.385,0,256,0L256,0z"/> <path style="fill:#000000;" d="M256,35.31c121.688,0,220.69,99,220.69,220.689v220.69H35.31v-220.69 C35.31,134.311,134.312,35.31,256,35.31 M256,17.655c-131.424,0-238.345,106.921-238.345,238.344v220.69l0,0 c0,9.751,7.904,17.655,17.655,17.655l0,0H476.69l0,0c9.751,0,17.655-7.904,17.655-17.655l0,0v-220.69 C494.345,124.576,387.424,17.655,256,17.655L256,17.655z"/> <path style="fill:#FFFFFF;" d="M136.828,441.379H83.862c-2.438,0-4.414-1.976-4.414-4.414v-97.103c0-2.438,1.976-4.414,4.414-4.414 h52.966c2.438,0,4.414,1.976,4.414,4.414v97.103C141.241,439.403,139.265,441.379,136.828,441.379z"/> <g> <circle style="fill:#45465f;" cx="110.345" cy="388.414" r="13.241"/> <circle style="fill:#45465f;" cx="92.69" cy="348.69" r="4.414"/> <circle style="fill:#45465f;" cx="128" cy="428.138" r="4.414"/> </g> <path style="fill:#FFFFFF;" d="M428.138,441.379h-52.966c-2.438,0-4.414-1.976-4.414-4.414v-97.103c0-2.438,1.976-4.414,4.414-4.414 h52.966c2.438,0,4.414,1.976,4.414,4.414v97.103C432.552,439.403,430.575,441.379,428.138,441.379z"/> <g> <circle style="fill:#45465f;" cx="401.655" cy="388.414" r="13.241"/> <circle style="fill:#45465f;" cx="384" cy="348.69" r="4.414"/> <circle style="fill:#45465f;" cx="419.31" cy="428.138" r="4.414"/> </g> <path style="fill:#FFFFFF;" d="M331.034,441.379h-52.966c-2.438,0-4.414-1.976-4.414-4.414v-97.103c0-2.438,1.976-4.414,4.414-4.414 h52.966c2.438,0,4.414,1.976,4.414,4.414v97.103C335.448,439.403,333.472,441.379,331.034,441.379z"/> <g> <circle style="fill:#45465f;" cx="304.552" cy="388.414" r="13.241"/> <circle style="fill:#45465f;" cx="286.897" cy="348.69" r="4.414"/> <circle style="fill:#45465f;" cx="322.207" cy="428.138" r="4.414"/> </g> <path style="fill:#FFFFFF;" d="M233.931,441.379h-52.966c-2.438,0-4.414-1.976-4.414-4.414v-97.103c0-2.438,1.976-4.414,4.414-4.414 h52.966c2.438,0,4.414,1.976,4.414,4.414v97.103C238.345,439.403,236.369,441.379,233.931,441.379z"/> <g> <circle style="fill:#FF6464;" cx="207.448" cy="388.414" r="13.241"/> <circle style="fill:#FF6464;" cx="189.793" cy="348.69" r="4.414"/> <circle style="fill:#FF6464;" cx="225.103" cy="428.138" r="4.414"/> </g> <g> <circle style="fill:#B9E678;" cx="105.931" cy="256" r="30.897"/> <circle style="fill:#B9E678;" cx="406.069" cy="256" r="30.897"/> <circle style="fill:#B9E678;" cx="256" cy="105.931" r="30.897"/> <circle style="fill:#B9E678;" cx="149.881" cy="149.881" r="30.897"/> <circle style="fill:#B9E678;" cx="362.119" cy="149.881" r="30.897"/> <path style="fill:#B9E678;" d="M326.621,295.724H185.379c-4.875,0-8.828-3.953-8.828-8.828v-61.793 c0-4.875,3.953-8.828,8.828-8.828h141.241c4.875,0,8.828,3.953,8.828,8.828v61.793 C335.448,291.772,331.496,295.724,326.621,295.724z"/> </g> </g>
</svg>